<mxfile host="app.diagrams.net" modified="2023-10-24T02:28:12.140Z" agent="Mozilla/5.0 (Windows NT 10.0; Win64; x64) AppleWebKit/537.36 (KHTML, like Gecko) Chrome/117.0.0.0 Safari/537.36 OPR/103.0.0.0" etag="qCaeVrfrdviOT2gV_2nM" version="22.0.6" type="github">
  <diagram name="Page-1" id="JIlZDkIPc6fDsJDhfCHW">
    <mxGraphModel dx="1112" dy="569" grid="1" gridSize="10" guides="1" tooltips="1" connect="1" arrows="1" fold="1" page="1" pageScale="1" pageWidth="850" pageHeight="1100" math="0" shadow="0">
      <root>
        <mxCell id="0" />
        <mxCell id="1" parent="0" />
        <mxCell id="1cqaB1Q_qEM46uVqkkQ3-6" style="edgeStyle=orthogonalEdgeStyle;rounded=0;orthogonalLoop=1;jettySize=auto;html=1;" edge="1" parent="1" source="1cqaB1Q_qEM46uVqkkQ3-1" target="1cqaB1Q_qEM46uVqkkQ3-4">
          <mxGeometry relative="1" as="geometry" />
        </mxCell>
        <mxCell id="1cqaB1Q_qEM46uVqkkQ3-1" value="" style="rounded=1;whiteSpace=wrap;html=1;" vertex="1" parent="1">
          <mxGeometry x="120" y="90" width="120" height="60" as="geometry" />
        </mxCell>
        <mxCell id="1cqaB1Q_qEM46uVqkkQ3-7" style="edgeStyle=orthogonalEdgeStyle;rounded=0;orthogonalLoop=1;jettySize=auto;html=1;" edge="1" parent="1" source="1cqaB1Q_qEM46uVqkkQ3-2" target="1cqaB1Q_qEM46uVqkkQ3-4">
          <mxGeometry relative="1" as="geometry" />
        </mxCell>
        <mxCell id="1cqaB1Q_qEM46uVqkkQ3-2" value="" style="rounded=1;whiteSpace=wrap;html=1;" vertex="1" parent="1">
          <mxGeometry x="120" y="270" width="120" height="60" as="geometry" />
        </mxCell>
        <mxCell id="1cqaB1Q_qEM46uVqkkQ3-3" value="" style="rounded=1;whiteSpace=wrap;html=1;" vertex="1" parent="1">
          <mxGeometry x="120" y="440" width="120" height="60" as="geometry" />
        </mxCell>
        <mxCell id="1cqaB1Q_qEM46uVqkkQ3-4" value="" style="ellipse;shape=cloud;whiteSpace=wrap;html=1;" vertex="1" parent="1">
          <mxGeometry x="310" y="255" width="170" height="90" as="geometry" />
        </mxCell>
        <mxCell id="1cqaB1Q_qEM46uVqkkQ3-5" value="" style="rounded=1;whiteSpace=wrap;html=1;" vertex="1" parent="1">
          <mxGeometry x="550" y="370" width="120" height="60" as="geometry" />
        </mxCell>
        <mxCell id="1cqaB1Q_qEM46uVqkkQ3-8" style="edgeStyle=orthogonalEdgeStyle;rounded=0;orthogonalLoop=1;jettySize=auto;html=1;entryX=0.55;entryY=0.95;entryDx=0;entryDy=0;entryPerimeter=0;" edge="1" parent="1" source="1cqaB1Q_qEM46uVqkkQ3-3" target="1cqaB1Q_qEM46uVqkkQ3-4">
          <mxGeometry relative="1" as="geometry" />
        </mxCell>
      </root>
    </mxGraphModel>
  </diagram>
</mxfile>
